<?xml version="1.0" encoding="UTF-8"?>
<svg id="_레이어_2" data-name="레이어 2" xmlns="http://www.w3.org/2000/svg" viewBox="0 0 255.35 54.84">
  <defs>
    <style>
      .cls-1 {
        fill: #fff;
        fill-rule: evenodd;
      }

      .cls-2 {
        fill: #1e288b;
      }
    </style>
  </defs>
  <g id="_레이어_1-2" data-name="레이어 1">
    <g>
      <path class="cls-2" d="M155.65,48.44c-.29.5-.61.89-.98,1.16-.36.26-.74.4-1.15.39-.6,0-1.12-.28-1.54-.82-.42-.53-.62-1.15-.6-1.86.01-.47.12-.9.33-1.3.2-.38.5-.73.9-1.05-.21-.25-.37-.51-.48-.79-.11-.29-.15-.58-.14-.89.02-.61.21-1.12.58-1.54.38-.42.83-.63,1.35-.63.47,0,.88.22,1.23.66.34.44.51.94.49,1.51-.01.36-.11.7-.29,1.02-.17.31-.42.59-.73.83l.61.75.68-1.85h1.4s-1.06,2.96-1.06,2.96l1.59,1.78-.87,1.13-1.33-1.47ZM154.15,48.15c.18-.16.35-.42.51-.78l-1.17-1.38c-.26.19-.45.39-.58.6-.12.21-.18.45-.19.71,0,.33.06.59.21.79.15.2.36.29.62.3.23,0,.43-.08.6-.24M153.4,43.73c.06.13.18.28.35.44.2-.14.34-.28.43-.41.1-.14.15-.3.16-.47,0-.2-.04-.36-.13-.47-.08-.1-.21-.16-.36-.16-.16,0-.28.05-.37.15-.1.1-.15.26-.15.46,0,.18.02.33.08.46"/>
      <path class="cls-2" d="M83.54,27.19h14.08v2.8h-17.65v-7.98h3.57v5.18ZM97.48,5.4v7.56h2.45v2.94h-2.45v7.51h-3.57V5.4h3.57ZM82.21,12.55c-.55.57-.82,1.29-.82,2.17s.27,1.58.82,2.17c.62.64,1.44.96,2.48.96s1.92-.31,2.55-.93c.6-.57.9-1.26.9-2.09,0-.88-.29-1.62-.85-2.22-.65-.65-1.52-.98-2.6-.98s-1.88.31-2.48.93M83.02,7.25v-1.98h3.57v1.98h4.9v2.71h-3.71c1.6.45,2.72,1.27,3.35,2.48.59,1.08.74,2.36.46,3.82-.31,1.19-1.03,2.17-2.16,2.97-1.27.88-2.85,1.31-4.72,1.31s-3.39-.46-4.65-1.37c-1.1-.81-1.8-1.81-2.09-3.02-.31-1.39-.16-2.63.44-3.71.62-1.17,1.69-1.99,3.22-2.48h-3.69v-2.71h5.08Z"/>
      <path class="cls-2" d="M125.02,17.69h-8.59v3.48h7.54v9.04h-3.54v-6.24h-14.9v-2.8h7.33v-3.48h-8.38v-2.8h15.51c.14-.67.25-1.43.33-2.29.07-.72.1-1.54.1-2.45v-1.42h-14.91v-2.8h18.45v2.65c0,1.03-.04,2.08-.1,3.14-.1,1.2-.23,2.26-.39,3.17h1.55v2.8Z"/>
      <path class="cls-2" d="M141.98,5.43h3.54v10.11h1.88V5.43h3.5v24.81h-3.5v-11.81h-1.88v11.81h-3.54V5.43ZM134.18,13.8c-.26,1.2-.39,2.78-.39,4.75s.13,3.47.39,4.77c.32,1.53.77,2.3,1.34,2.3.6,0,1.07-.77,1.39-2.3.29-1.29.44-2.88.44-4.77s-.14-3.54-.44-4.75c-.31-1.36-.77-2.04-1.39-2.04-.59,0-1.03.68-1.34,2.04M133.52,7.36v-2.06h3.54v2.06h3.74v2.74h-3.04c1.14.77,1.98,2.17,2.53,4.18.52,1.84.69,3.86.52,6.06-.19,2.29-.7,4.16-1.55,5.62-.96,1.65-2.21,2.48-3.74,2.48s-2.74-.83-3.66-2.48c-.84-1.46-1.35-3.33-1.52-5.62-.19-2.18-.04-4.2.46-6.06.55-2,1.4-3.39,2.55-4.18h-3.14v-2.74h3.33Z"/>
      <path class="cls-2" d="M173.01,21.91c1.5,1,2.24,2.23,2.24,3.69s-.75,2.66-2.24,3.64c-1.69,1.12-3.96,1.68-6.83,1.68s-5.22-.56-6.89-1.68c-1.48-.98-2.22-2.19-2.22-3.64s.74-2.71,2.22-3.69c1.67-1.12,3.96-1.68,6.89-1.68s5.15.56,6.83,1.68M161.92,23.84c-.88.46-1.31,1.05-1.31,1.75s.44,1.24,1.31,1.7c.98.53,2.35.8,4.1.8s3.23-.27,4.26-.8c.91-.46,1.37-1.03,1.37-1.7s-.46-1.29-1.37-1.75c-1.03-.53-2.45-.8-4.26-.8s-3.12.27-4.1.8M174.89,5.42v2.73h2.43v2.74h-2.43v3.12h2.43v2.77h-2.43v2.62h-3.57V5.42h3.57ZM159.93,9.19c-.47.69-.7,1.62-.7,2.81s.23,2.1.7,2.78c.55.79,1.35,1.19,2.4,1.19s1.85-.39,2.4-1.19c.48-.69.72-1.61.72-2.78s-.24-2.12-.72-2.81c-.55-.77-1.35-1.16-2.4-1.16s-1.85.39-2.4,1.16M167.41,7.31c1.09,1.22,1.63,2.79,1.63,4.69s-.54,3.45-1.63,4.67c-1.2,1.36-2.9,2.04-5.08,2.04s-3.87-.68-5.05-2.04c-1.08-1.22-1.62-2.78-1.62-4.67s.54-3.47,1.62-4.69c1.19-1.34,2.87-2.01,5.05-2.01s3.88.67,5.08,2.01"/>
      <polygon class="cls-2" points="189.99 8.72 185.86 8.72 185.86 24.62 192.17 24.62 192.17 5.42 195.74 5.42 195.74 15.27 198.38 15.27 198.38 5.42 201.95 5.42 201.95 30.22 198.38 30.22 198.38 18.1 195.74 18.1 195.74 30.25 192.17 30.25 192.17 27.36 185.23 27.36 182.32 27.36 182.32 5.95 189.99 5.95 189.99 8.72"/>
      <path class="cls-2" d="M227.59,21.14v9.07h-3.57v-6.27h-14.34v-2.8h17.91ZM227.59,5.41v5.85h2.43v2.83h-2.43v5.39h-3.57V5.41h3.57ZM212.32,12.02c-.53.5-.8,1.12-.8,1.86s.27,1.33.8,1.88c.62.62,1.45.93,2.48.93s1.86-.31,2.5-.93c.57-.55.85-1.18.85-1.88s-.28-1.36-.85-1.86c-.62-.57-1.45-.85-2.5-.85s-1.86.28-2.48.85M213.1,6.89v-1.6h3.57v1.6h4.9v2.65h-3.66c1.53.43,2.61,1.17,3.22,2.22.58.96.73,2.11.44,3.43-.33,1.15-1.04,2.11-2.14,2.86-1.26.86-2.8,1.29-4.62,1.29s-3.39-.44-4.65-1.32c-1.08-.77-1.78-1.72-2.09-2.84-.31-1.32-.18-2.47.39-3.43.62-1.05,1.7-1.79,3.22-2.22h-3.64v-2.65h5.06Z"/>
      <path class="cls-2" d="M255.15,28.47h-20.56v-2.74h2.61v-11.2h3.57v11.2h2.77v-11.2h3.57v11.2h8.05v2.74ZM254.09,5.94v9.44c0,1.87-.11,3.66-.34,5.36-.22,1.74-.55,3.38-1.06,5.06h-3.43c.46-1.5.75-2.89.96-4.32.22-1.51.33-3.12.33-4.82v-7.69h-14.91v-3.04h18.45Z"/>
      <path class="cls-2" d="M70.89,9.47c.07-.39.13-.85.17-1.37.04-.49.06-.98.06-1.46v-1.32h-9.15v1.48h7.24v.57c0,.42-.02.79-.05,1.12-.04.38-.09.7-.15.98h-7.56v1.47h4.07v1.44h-3.56v1.47h7.25v2.89h1.91v-4.36h-3.69v-1.44h4.21v-1.47h-.75Z"/>
      <path class="cls-2" d="M69.32,26.49h-5.04v-.81h-1.91v4.43h8.85v-4.43h-1.9v.81ZM64.28,27.94h5.04v.7h-5.04v-.7Z"/>
      <polygon class="cls-2" points="61.78 21.01 61.78 24.99 69.3 24.99 69.3 25.25 71.2 25.25 71.2 18.54 69.3 18.54 69.3 23.55 63.69 23.55 63.69 22.43 67.78 22.43 67.78 18.77 61.78 18.77 61.78 20.2 65.89 20.2 65.89 21.01 61.78 21.01"/>
      <polygon class="cls-2" points="67.3 41.22 64.57 44.85 67.76 49.66 65.84 49.66 63.59 46.03 63.05 46.96 63.05 49.66 61.44 49.66 61.44 41.22 63.05 41.22 63.05 44.47 65.32 41.22 67.3 41.22"/>
      <path class="cls-2" d="M74.44,46.94c0,.83-.16,1.46-.47,1.89-.47.66-1.33.99-2.58.99s-2.12-.33-2.59-.99c-.3-.42-.46-1.05-.46-1.89v-3.12c0-.79.14-1.39.46-1.81.47-.65,1.33-.97,2.59-.97s2.09.32,2.58.97c.31.43.47,1.03.47,1.81v3.12ZM72.81,43.38c0-.33-.11-.61-.34-.83-.26-.26-.61-.39-1.07-.39-.48,0-.85.14-1.11.41-.21.22-.31.49-.31.81v3.95c0,.36.1.66.3.91.25.32.62.48,1.12.48.53,0,.91-.16,1.14-.48.18-.24.27-.56.27-.95v-3.91Z"/>
      <path class="cls-2" d="M75.5,41.22h2.51c1.11,0,1.92.09,2.42.26.57.21.86.57.86,1.09v1.14c0,.48-.08.82-.23,1.02-.2.26-.61.43-1.21.52.35.12.63.24.83.38.19.13.34.28.43.45.09.14.14.32.16.53.01.13.02.35.02.66v2.38h-1.66v-3c0-.22-.02-.37-.04-.46-.04-.13-.13-.23-.27-.3-.16-.07-.4-.12-.73-.16-.34-.03-.83-.05-1.45-.05v3.96h-1.63v-8.44ZM77.13,44.66h.27c.61,0,1.01,0,1.21,0,.3-.01.52-.04.67-.07.14-.04.23-.1.28-.19.04-.07.06-.19.06-.36v-1.12c0-.18-.02-.31-.07-.38-.05-.08-.15-.14-.3-.18-.15-.04-.39-.06-.74-.07-.23,0-.69-.01-1.38-.01v2.39Z"/>
      <polygon class="cls-2" points="82.37 41.22 86.84 41.22 86.84 42.32 84 42.32 84 44.77 86.66 44.77 86.66 45.83 84 45.83 84 48.53 86.93 48.53 86.93 49.66 82.37 49.66 82.37 41.22"/>
      <path class="cls-2" d="M91.99,41.22l2.05,8.44h-1.64l-.53-2.16h-2.22l-.51,2.16h-1.66l2.05-8.44h2.45ZM89.94,46.34h1.65l-.82-3.62-.84,3.62Z"/>
      <polygon class="cls-2" points="107.03 41.22 107.03 49.66 105.4 49.66 105.4 42.59 103.79 49.66 102.18 49.66 100.53 42.59 100.53 49.66 98.9 49.66 98.9 41.22 101.82 41.22 102.26 43.36 102.97 47.6 104.16 41.22 107.03 41.22"/>
      <path class="cls-2" d="M112.39,41.22l2.05,8.44h-1.64l-.53-2.16h-2.22l-.51,2.16h-1.66l2.05-8.44h2.45ZM110.33,46.34h1.65l-.81-3.62-.84,3.62Z"/>
      <path class="cls-2" d="M115.29,41.22h2.51c1.11,0,1.92.09,2.41.26.57.21.86.57.86,1.09v1.14c0,.48-.08.82-.23,1.02-.2.26-.61.43-1.21.52.35.12.62.24.82.38.2.13.34.28.44.45.09.14.14.32.16.53.02.13.02.35.02.66v2.38h-1.66v-3c0-.22-.02-.37-.05-.46-.04-.13-.13-.23-.27-.3-.16-.07-.4-.12-.74-.16-.34-.03-.82-.05-1.45-.05v3.96h-1.63v-8.44ZM116.93,44.66h.27c.61,0,1.01,0,1.21,0,.3-.01.52-.04.66-.07.14-.04.23-.1.28-.19.04-.07.06-.19.06-.36v-1.12c0-.18-.02-.31-.07-.38-.05-.08-.15-.14-.3-.18-.15-.04-.39-.06-.73-.07-.23,0-.69-.01-1.38-.01v2.39Z"/>
      <rect class="cls-2" x="122.29" y="41.22" width="1.67" height="8.44"/>
      <polygon class="cls-2" points="130.45 41.22 130.45 42.31 128.22 42.31 128.22 49.66 126.55 49.66 126.55 42.31 124.7 42.31 124.7 41.22 130.45 41.22"/>
      <rect class="cls-2" x="131.25" y="41.22" width="1.67" height="8.44"/>
      <polygon class="cls-2" points="142.36 41.22 142.36 49.66 140.73 49.66 140.73 42.59 139.12 49.66 137.51 49.66 135.86 42.59 135.86 49.66 134.23 49.66 134.23 41.22 137.15 41.22 137.59 43.36 138.3 47.6 139.49 41.22 142.36 41.22"/>
      <polygon class="cls-2" points="143.56 41.22 148.03 41.22 148.03 42.32 145.19 42.32 145.19 44.77 147.86 44.77 147.86 45.83 145.19 45.83 145.19 48.53 148.12 48.53 148.12 49.66 143.56 49.66 143.56 41.22"/>
      <path class="cls-2" d="M167,46.94c0,.83-.16,1.46-.45,1.89-.46.66-1.29.99-2.51.99s-2.06-.33-2.52-.99c-.29-.42-.44-1.05-.44-1.89v-3.12c0-.79.14-1.39.44-1.81.46-.65,1.29-.97,2.52-.97s2.04.32,2.51.97c.3.43.45,1.03.45,1.81v3.12ZM165.43,43.38c0-.33-.11-.61-.33-.83-.25-.26-.6-.39-1.04-.39-.47,0-.83.14-1.08.41-.2.22-.31.49-.31.81v3.95c0,.36.1.66.29.91.24.32.61.48,1.09.48.51,0,.89-.16,1.11-.48.18-.24.26-.56.26-.95v-3.91Z"/>
      <path class="cls-2" d="M174.07,44.26h-1.59v-1.09c0-.29-.11-.53-.33-.71-.25-.21-.61-.31-1.09-.31s-.82.12-1.07.35c-.25.24-.38.57-.38,1v3.91c0,.41.13.73.38.98.27.25.62.38,1.07.38s.79-.12,1.04-.37c.25-.25.37-.61.37-1.07v-.78h1.59v.34c0,.92-.19,1.61-.58,2.07-.47.57-1.27.86-2.4.86-1.19,0-2.02-.29-2.49-.86-.38-.47-.58-1.25-.58-2.32v-2.47c0-1.01.19-1.76.58-2.25.48-.6,1.28-.9,2.41-.9s1.92.25,2.43.74c.42.4.64.96.64,1.69v.79Z"/>
      <polygon class="cls-2" points="175.2 41.22 179.55 41.22 179.55 42.32 176.79 42.32 176.79 44.77 179.38 44.77 179.38 45.83 176.79 45.83 176.79 48.53 179.64 48.53 179.64 49.66 175.2 49.66 175.2 41.22"/>
      <path class="cls-2" d="M184.57,41.22l2,8.44h-1.6l-.51-2.16h-2.16l-.5,2.16h-1.61l2-8.44h2.38ZM182.57,46.34h1.61l-.79-3.62-.82,3.62Z"/>
      <polygon class="cls-2" points="193.05 41.22 193.05 49.66 190.79 49.66 188.89 43.25 188.89 49.66 187.3 49.66 187.3 41.22 189.45 41.22 191.44 47.64 191.44 41.22 193.05 41.22"/>
      <path class="cls-2" d="M204.01,41.21v5.72c0,.49-.02.86-.07,1.12-.06.38-.18.69-.35.93-.2.27-.49.48-.87.62-.42.16-.97.24-1.64.24s-1.23-.08-1.66-.24c-.39-.14-.69-.35-.9-.62-.18-.24-.3-.55-.37-.93-.04-.27-.07-.64-.07-1.12v-5.72h1.62v6.28c0,.44.06.73.19.88.18.2.57.3,1.17.3s.95-.1,1.12-.3c.13-.14.19-.44.19-.88v-6.28h1.62Z"/>
      <polygon class="cls-2" points="210.96 41.22 210.96 49.66 208.69 49.66 206.79 43.25 206.79 49.66 205.2 49.66 205.2 41.22 207.35 41.22 209.34 47.64 209.34 41.22 210.96 41.22"/>
      <rect class="cls-2" x="212.1" y="41.22" width="1.62" height="8.44"/>
      <path class="cls-2" d="M221.34,41.22l-2.04,8.44h-2.67l-1.98-8.44h1.61l1.7,7.22.13-.54c.24-.99.42-1.73.53-2.21.21-.84.39-1.61.55-2.32l.5-2.14h1.67Z"/>
      <polygon class="cls-2" points="222.14 41.22 226.49 41.22 226.49 42.32 223.73 42.32 223.73 44.77 226.32 44.77 226.32 45.83 223.73 45.83 223.73 48.53 226.58 48.53 226.58 49.66 222.14 49.66 222.14 41.22"/>
      <path class="cls-2" d="M227.56,41.22h2.44c1.09,0,1.87.09,2.35.26.56.21.84.57.84,1.09v1.14c0,.48-.08.82-.23,1.02-.2.26-.59.43-1.18.52.34.12.61.24.8.38.19.13.33.28.42.45.08.14.14.32.16.53.01.13.02.35.02.66v2.38h-1.61v-3c0-.22-.02-.37-.04-.46-.04-.13-.12-.23-.26-.3-.15-.07-.39-.12-.72-.16-.33-.03-.8-.05-1.41-.05v3.96h-1.59v-8.44ZM229.14,44.66h.26c.59,0,.98,0,1.18,0,.3-.01.51-.04.65-.07.13-.04.23-.1.27-.19.04-.07.05-.19.05-.36v-1.12c0-.18-.02-.31-.07-.38-.04-.08-.14-.14-.29-.18-.14-.04-.38-.06-.72-.07-.23,0-.67-.01-1.34-.01v2.39Z"/>
      <path class="cls-2" d="M239.78,43.77h-1.62v-.76c0-.34-.07-.57-.2-.69-.16-.16-.49-.24-.97-.24-.52,0-.88.09-1.06.27-.13.13-.19.38-.19.73,0,.18,0,.31.02.39.03.11.09.21.17.3.09.09.24.19.44.3.17.1.44.24.82.42l.51.24c.53.26.9.45,1.1.56.31.18.54.36.7.52.17.19.3.41.37.68.07.26.11.6.11,1.02,0,.8-.23,1.38-.68,1.75-.48.39-1.26.58-2.34.58s-1.81-.18-2.25-.53c-.35-.28-.53-.72-.53-1.33v-1.13h1.61v.91c0,.36.06.6.19.74.17.19.51.28,1.02.28s.9-.1,1.1-.31c.17-.16.25-.41.25-.74,0-.41-.11-.74-.35-.99-.28-.3-.86-.67-1.74-1.11-.86-.43-1.41-.77-1.65-1.01-.34-.34-.51-.82-.51-1.44,0-.71.23-1.24.68-1.6.47-.35,1.17-.53,2.11-.53s1.7.12,2.19.35c.45.21.67.51.67.89v1.48Z"/>
      <rect class="cls-2" x="241.13" y="41.22" width="1.63" height="8.44"/>
      <polygon class="cls-2" points="249.07 41.22 249.07 42.31 246.9 42.31 246.9 49.66 245.28 49.66 245.28 42.31 243.48 42.31 243.48 41.22 249.07 41.22"/>
      <path class="cls-2" d="M255.35,41.22l-2.27,5.44v3h-1.58v-3l-2.19-5.44h1.63c.16.46.34.99.54,1.6.11.36.27.84.47,1.46l.33.99,1.42-4.04h1.63Z"/>
      <path class="cls-2" d="M26.24,12.84l-.06,1.35s.2.22-.23.22h-6.46s-1.21,0-1.55,1.21c-.34,1.21-3.3,14.27-3.3,14.27,0,0,1.32,1.15,3.64.79,0,0,.05.03.11-.31.06-.34,1.27-7.99,1.49-9.23.23-1.24.59-3.55.68-3.83.14-.17.14-.14.31-.14s2.31.03,2.31.03c0,0,.08-.05.08.14s-1.19,11.31-1.19,11.31c0,0-.06.23.09.17.14-.06,2.17-.96,3.53-.96,0,0,.11-.03.14-.28.03-.25.37-10.22.37-10.22,0,0-.03-.17.2-.17h2.23s.22-.03.22.25.31,10.3.31,10.3c0,0,0,.08.17.11.17.03,2.74.54,3.3.99l.2.06-.96-11.68,2.43-.03s.14-.08.2.17c.06.25,1.98,13.23,1.98,13.23,0,0-.03.14.2.23.23.08,2.43.2,3.44-.7l.03-.2-3.05-14.1s-.03-1.35-2.06-1.38c-2.03-.03-6.15,0-6.15,0l-.11-2.67s-.09-.11-.2-.11-2.17-.03-2.17-.03c0,0-.11-.03-.11.14s-.06,1.07-.06,1.07"/>
      <path class="cls-2" d="M23.66,41.6l.02-.85-.02-.35h-.49s-.06.03-.06.06v.04c-.03.05-.1.39-.63.39-.18.03-.17.2-.17.2,0,0-.01.21.1.21h.58s.07.04.07.22v1.74h.06v.09s.03.06.06.06h.42s.07-.03.07-.06v-1.76ZM26.17,41.36c0,.34-.27.61-.61.61s-.61-.27-.61-.61.27-.61.61-.61.61.27.61.61M26.78,41.98c.08-1.89-1.29-1.72-1.29-1.72-.6,0-1.09.49-1.09,1.08s.49,1.08,1.09,1.08c.22,0,.43-.07.6-.18,0,.01,0,.02,0,.04.01.17-.01.35-.2.53-.49.52-.95-.12-.95-.12h-.52c.09.46.58.88,1.42.74.85-.14.92-1.46.92-1.46M28.79,42.81l-.1-.03.14.1-.04-.07ZM28.83,42.24l-.02.05-.04.02-.78.03-.04-.03v-.07s.09-.11.11-.16l.64-.79.07-.04.06.04v.94ZM29.78,42.78s.06-.03.06-.06v-.35s-.03-.06-.06-.06h-.29l-.07-.03-.03-.08v-1.73s-.03-.06-.07-.06h-.43s-.02,0-.03,0c-.03-.01-.06,0-.08.02l-1.13,1.45c-.05.06-.09.11-.12.16-.03.03-.05.06-.07.09-.07.11-.04.18-.04.18h0s-.02.03-.02.05v.35s.03.06.06.06h1.35v.61s.03.06.06.06h.43s.07-.03.07-.06v-.5l.04-.07.08-.04h.27ZM31.08,41.51s0-.06,0-.12c0-.06.03-.19.06-.33,0-.12.18-.17.18-.17h1.1c.05,0,.06-.06.06-.06v-.33c0-.07-.08-.08-.08-.08,0,0-1.41,0-1.54,0-.13,0-.13.15-.13.15,0,0-.23,1.32-.24,1.41,0,.08.07.1.07.1h.45c.63-.44.95.07.95.07.28.38.01.84-.39.91-.4.07-.59-.22-.64-.34-.02-.05-.07-.08-.07-.08h-.44c-.06,0-.09.05-.09.05.34,1.27,2.27,1.11,2.34-.25-.11-1.42-1.59-.92-1.59-.92M20.77,44.87s-.15.04-.15.1.01.13.01.13v.72s-.01.18.1.16,3.51-.82,3.51-.82c0,0,1.8-.63,2.03,1.49,0,.07.04.07.04.07h2s.07-.06.07-.11.16-1.89,2.13-1.48c1.98.41,3.43.83,3.43.83v-1.04l-3.02-.76s-2.47-1.03-3.6,1.83c0,0-.73-2.6-3.34-1.93-2.64.68-3.22.82-3.22.82M46.8,32.75c-.68.17-2.13.22-3.48.95-2.48,1.8-4.51,2.03-6.94,1.91-2.54-.12-4.01-1.63-5.87-2.42-1.86-.79-3.89-.62-5.25-.28-1.35.34-3.5,1.8-5.31,2.36-1.81.56-5.02.51-7.62-1.18-2.6-1.69-4.29-1.54-4.29-1.54-.11-.11-.34-1.67-.34-1.67h.9c2.14,0,3.78,1.46,5.25,2.19,2.93,1.35,4.68.84,6.49.28,1.81-.56,2.88-2.03,6.32-2.31,3.44-.28,5.81,1.35,7.68,2.31,1.86.96,4.8,1.01,7.11-.34,2.2-1.8,5.71-1.93,5.71-1.93M8.66,34.43s.28-.06.68,0c.39.06,1.75.96,1.75.96,1.47,1.12,6.32,2.98,10.61,1.12,6.49-3.94,8.47-1.58,10.38-.39,5.87,2.7,9.71.73,11.57-.51,1.86-1.24,2.2-.96,2.2-.96l.17.11c-.17.73-.79,1.8-.79,1.8-6.94,4.5-12.7,1.91-14.73.45-2.03-1.46-4.69-1.18-5.93-.17-8.13,5.23-15.13-.56-15.13-.56l-.79-1.86ZM16.68,40.5c4.23.12,6.2-.83,9.09-2.47,2.37-1.35,4.01.62,5.7,1.41,6.38,2.7,11.97,0,11.97,0,0,0-5.33,8.09-15.63,8.05-11.67-.05-16.59-8.27-16.59-8.27,2.14,1.1,5.48,1.29,5.48,1.29M54.07,33.77s-2.97-4.75-8.27-4.3c-5.3.45-5.93,4.67-11.46,1.97-5.7-2.76-7.23-2.53-11.12-1.41-2.77.79-4.85,4-9.37.96-3.22-1.86-5.42-1.91-6.89-1.86-1.47.06-2.54.55-3.42,1.04-1.84,1.01-2.96,2.5-2.96,2.5,0,0,1.61,10.6,11.05,17.12,9.74,6.73,21.22,6.4,30.25.92,7.99-4.86,11.16-12.33,12.19-16.9"/>
      <path class="cls-2" d="M47.17,31.1s-.34,1.64-.37,1.65"/>
      <path class="cls-1" d="M7.51,37.44c.23.42.31.87.64,1.23.08.1.19.17.31.22.07.01.11-.23-.01-.57-.11-.29-.29-.58-.43-.9-.15-.34-.28-.61-.44-.95-.19-.4-.32-1.06-.79-1.21-.06,0-.18-.03-.15.09.09.71.44,1.07.68,1.63l.2.45Z"/>
      <path class="cls-1" d="M7.86,35.56c.19-.08.32.19.37.31.09.19.2.38.3.57.1.2.17.4.25.61.29.77.12.72.12.72-.31-.08-.52-.51-.71-.86-.16-.29-.34-.58-.39-.91-.02-.1-.08-.37.05-.44"/>
      <path class="cls-1" d="M48.36,36.39c.18.11.71.43.88.69.12.18.32.35.09.69-.19.21-1.14-.9-1.94-1.12,0,0-.09-.05-.14.04l-1.45,2.64c-.15.28-.28.71-.67.76-.47-.09.5-1.43.84-2.05.19-.34.35-.69.53-1.03.22-.42.38-.54.55-1.02,0,0-.05-.29.19-.34.21-.05.42.3.58.41.18.12.36.24.54.35"/>
      <path class="cls-1" d="M6.77,39.15s.04,0,.06,0c.17-.02.39-.11.5-.24.11-.13.12-.31.12-.47,0-.32-.04-.64-.13-.95-.02-.07-.05-.13-.07-.2-.1-.41-.64-.81-.64-.81-.21-.14-.67-.36-1.06-.17-.21.1-.33.5-.35.77-.03.38.12.74.29,1.08.18.33.43.62.73.84.15.11.35.16.54.15M6.79,38.45c-.62.33-1.38-1.1-.88-1.55.72-.3,1.25,1.31.88,1.55"/>
      <path class="cls-1" d="M51.36,37.25c-.89,1.14-1.64,2.62-2.28,4.05-.2.45-.3.99-.81,1.21-.31.1,0-1.16.23-1.48-.48-.37-1.91-.69-1.31-1.36,0,0,.22-.29.54-.04,0,0,.28.32.37.39.09.07.36.2.79.33.16.05.45-.62.4-.72-.17-.35-1.32-.53-1.55-1,0,0-.1-.55.48-.52,0,0,.28.06.51.32,0,0,.6.5.86.46,0,0,.08-.05.16-.22,0,0,1.29-2.23,1.27-2.38,0,0,.03-.09.07-.04l.27.94v.07Z"/>
      <path class="cls-1" d="M4,38.01c-.01.16.16.36.24.5.12.2.21.4.29.62.09.24.21.47.31.71.27.58.61,1.16.79,1.81-.72.04-.7-.46-.97-1.12-.33-.81-.63-1.52-1.06-2.24-.1-.16-.55-.18-.44-.6.44-.36,1.83-1.06,1.77-.26-.02.22-.19.3-.38.35-.1.03-.19.06-.3.08-.1.02-.24.04-.25.16"/>
      <path class="cls-1" d="M7.4,39.83c-.35.15-.95.22-1.14.59-.18.33.32.36.53.32.29-.07.54-.24.81-.36.16-.07.34-.12.52-.12.2.18.13.62.44.69.51-.1-.14-.69.01-.99.01-.02.33-.14.38-.16.12-.04.24-.09.37-.14.12-.05.24-.1.36-.15.12-.05.5-.12.46-.32,0,0,.02-.38-.25-.34,0,0-.25.02-.69.2,0,0-1.78.78-1.78.78"/>
      <path class="cls-1" d="M11.11,43.71c-.28-.25-.5-.52-.79-.78-.25-.21-.57-.53-.97-.52,0,0-.25.06-.11.29l1.93,1.65s.03,0,.03.04c0,.06-.17.16-.21.2-.21.19-.36.37-.32.66.03.16.26.17.26.17,0,0,.35-.07.78-.56l.81.91c.44.51.69,1.12,1.32.52-.27-.22-.53-.36-.79-.69.35-.03.65-.25.88-.43.22-.17.5-.42.62-.69.06-.34-.34-.37-.34-.37l-.99-.93c-.34-.35-1.23-1.31-1.68-1.46,0,0-.29-.11-.36.04,0,0-.12.07,0,.24.12.17,1.95,1.79,1.95,1.79.21.21.56.35.62.69-.37.27-.56.52-1.11.72,0,0-.86-.88-1.48-1.43l-.06-.07Z"/>
      <path class="cls-1" d="M43.86,42.76c.31-.07.53-.67.88-.43.17.31-.38.51-.56.8.17.46.93.66.64,1.1-.43.36-.96-.37-1.41-.81-.4-.39-1.17-.96-1.15-1.26.03-.3.18-.44.51-.41.35.03.81.9,1.07,1.02"/>
      <path class="cls-1" d="M11.29,46.81c-.63-.96-1.64-1.56-2.38-2.41-.1-.13-.1-.22,0-.35,0,0,.11-.15.38.12l2.1,2.04c.23.22.62.34.71.69l-.04.1c-.41.6-1.07,1.01-1.07,1.01,0,0-.4.12-.38-.19,0,0-.04-.16.1-.33l.6-.67Z"/>
      <path class="cls-1" d="M45.27,45.26c.43.26.83,1.08,1.32.77.18-.13.08-.33.08-.33-.31-.4-1.14-1.3-1.14-1.3,0,0-.21-.22-.36-.09,0,0-.16.07-.28.46l-1.57,1.44c-.2.2-.51.46-.71.69-.23.26-.61.5-.35.95,0,0,.08.06.2-.05l2.64-2.46s.11-.1.16-.07"/>
      <path class="cls-1" d="M37.19,46.41c.51,1.57,1.12,3.05,1.55,4.53.07.24.21.44.09.69-.33.28-.54-.25-.62-.41-.37-.72-.58-1.65-.88-2.35-.23.05-.43.17-.68.22.23,1.03,1.02,2.17.68,2.62-.26.19-.44-.21-.44-.21l-1.42-3.76c-.07-.28-.33-.55,0-.78.52-.22.56.37.71.78.14.4.18.69.33.95.2-.1.47-.15.64-.26-.13-.72-.87-1.71-.44-2.15,0,0,.34-.2.48.12"/>
      <path class="cls-1" d="M18.88,47.59c.03-.28-.36-.38-.62-.52-.43-.22-1.14-.53-1.32-.26,0,0-.06.17.27.29,0,0,1.24.48,1.42.54,0,0,.23.07.24-.06"/>
      <path class="cls-1" d="M18.29,49.18l-.03-.09c-.06-.23-.53-.55-.53-.55,0-.28-.24-.31-.24-.31-.19-.06-.3.16-.3.16-.21-.08-.61-.01-.61-.01-.17.05-.39.14-.53.26-.43.38-.49,1.18-.18,1.64.14.19.83.6,1.41.52.75-.1,1.22-.78,1-1.6M16.85,50.26c-.83-.15-.48-1.86.62-1.29.55.35-.03,1.4-.62,1.29"/>
      <path class="cls-1" d="M19.23,48.36s.19.14,0,.26c-.66,0-1.01-.28-1.5-.43,0,0-1.24-.5-1.33-.58,0,0-.43-.2-.31-.39,0,0,.05-.13.2-.08,0,0,1.16.39,2.5.97,0,0,.26.12.44.25"/>
      <path class="cls-1" d="M19.85,49.22c.08.21.36.23.62.26l.4-.97s.27-.91.58-.93c.7.14.24.82.09,1.21-.41,1.04-.76,1.92-1.15,2.93-.18.48-.35,1.41-.88,1.21-.43-.23.6-1.94.79-2.93-.12-.14-.37-.2-.6-.24-.13-.02-.34.72-.36.81-.12.38-.21.8-.39,1.16-.14.28-.34.53-.65.29-.16-.12.24-1.08.43-1.62.19-.54.41-1.11.61-1.71l.07-.24c.19-.5.46-1.52,1.06-.86,0,0,.03.05-.02.2,0,0-.52,1.36-.59,1.44"/>
      <path class="cls-1" d="M36.27,50.26c-.87.23-1.39.5-2.38.78-.04,0-.05-.02-.05-.02,0-.03-.71-2.06-.71-2.06-.02-.06.06-.08.06-.08.22-.09.55-.17.79-.26.47-.17.64-.21.62-.43-.16-.28-.56-.12-.97,0-.43.13-1.19.38-1.41.69,0,0-.09.27.26.33,0,0,.43,1.01.45,1.05l.4,1.01s-.3.43.04.54c.33.07.53-.23.79-.34.63-.27,1.22-.32,1.9-.58,0,0,.04-.02.06-.1l.15-.47s.04-.08,0-.06"/>
      <path class="cls-1" d="M29.56,48.5v.88c.36.12.99-.07.97.28-.03.37-.73.13-.97.2,0,.2,0,.48,0,.69.37.05,1.17-.12.97.4-.17.2-.65.06-.97.09-.05.16.06.92-.35.95-.5-.01-.35-.97-.35-1.55v-1.89s.02-.33.33-.32c0,0,.41-.01.38.28"/>
      <path class="cls-1" d="M24.53,49.4c-.34,1.04.42,1.77,1.06,1.89,1.38.28,2.42-.51,2.29-1.55-.07-.57-.37-.91-1.11-1.09l-.24-.05c0-.24-.28-.27-.28-.27-.23,0-.27.26-.27.26,0,0-1.13-.14-1.43.72l-.03.08ZM25.32,50.52c-.39-.44-.1-1.33.53-1.47.59-.13,1.24.24,1.32.61.24,1-1.06,1.56-1.85.86"/>
      <path class="cls-1" d="M27.76,52.07c-.05-.1-.16-.35-.49-.26-.13.05-.22.13-.27.26-.84.01-1.96.3-2.03.95-.17,1.58,4.57,1.46,4.68.17.08-.94-.93-1.01-1.89-1.12M25.67,53.19c-.03-.3.28-.42.53-.52.44-.17,2.84-.32,2.73.52-.08.66-3.2.78-3.27,0"/>
      <path class="cls-1" d="M41.26,44.46c.33-.35.75-.56,1-.97.06-.11.1-.23.11-.35,0-.07-.26-.04-.55.19-.25.19-.48.45-.74.67-.29.24-.51.44-.79.7-.33.3-.93.62-.93,1.11.02.05.03.17.14.12.67-.3.91-.74,1.38-1.14l.38-.32Z"/>
      <path class="cls-1" d="M39.32,44.72c-.14-.15.09-.36.19-.44.16-.14.31-.3.46-.45.16-.15.34-.29.52-.42.66-.5.66-.33.66-.33.02.31-.34.64-.62.92-.23.23-.46.49-.76.64-.09.05-.34.19-.45.08"/>
      <path class="cls-1" d="M43.15,44.63s-.01-.04-.02-.05c-.08-.15-.23-.33-.39-.39-.16-.06-.33-.02-.49.03-.31.09-.61.23-.88.42-.06.04-.12.09-.18.12-.37.22-.6.84-.6.84-.08.24-.15.73.16,1.04.16.16.59.15.86.09.38-.09.69-.34.96-.6.27-.26.47-.59.6-.94.06-.17.05-.38-.02-.55M42.47,44.83c.51.47-.65,1.62-1.24,1.29-.51-.57.9-1.56,1.24-1.29"/>
      <path class="cls-1" d="M41.11,44.61c.14-.04.29.03.33.17.05.13-.03.28-.17.32-.14.05-.29-.03-.33-.17-.05-.14.03-.28.17-.33"/>
      <polygon class="cls-2" points="7.23 27.79 7.22 28.36 0 28.25 0 27.68 2.96 27.72 .03 26.63 .04 25.9 2.99 27.06 7.26 25.95 7.25 26.69 4.07 27.47 4.79 27.75 7.23 27.79"/>
      <path class="cls-2" d="M.62,24.36c-.38-.28-.55-.57-.51-.87.04-.3.29-.52.73-.69.69-.25,1.76-.27,3.21-.06,1.44.21,2.46.53,3.04.96.39.28.56.57.52.87-.04.3-.29.53-.74.69-.69.25-1.75.27-3.19.06-1.45-.21-2.47-.53-3.06-.96M5.77,24.79c.35-.08.53-.22.56-.41.03-.19-.11-.37-.42-.55-.4-.23-1.05-.41-1.93-.53-.89-.13-1.57-.14-2.02-.03-.35.08-.53.22-.56.4-.03.19.11.38.42.55.41.23,1.06.41,1.95.53.89.13,1.56.14,2,.03"/>
      <path class="cls-2" d="M.72,21.14l.38-1.34c.08-.3.4-.45.94-.46.38,0,.8.06,1.26.19.39.11.72.24,1,.39.29.16.47.32.55.48.17-.08.36-.12.56-.11.27.01.71.1,1.31.27.54.15.89.24,1.02.27.19.04.32.03.39,0l.18.05-.17.61c-.18-.03-.37-.07-.57-.11-.23-.05-.51-.13-.85-.22-.53-.15-.87-.22-1.04-.22-.22,0-.35.09-.4.28l-.16.57,2.72.76-.15.54-6.96-1.94ZM4.13,20.81c.04-.14,0-.27-.13-.38-.13-.11-.37-.22-.72-.31-.25-.07-.46-.1-.62-.1-.23,0-.36.08-.4.22l-.19.69,1.88.52.18-.65Z"/>
      <polygon class="cls-2" points="3.66 16.54 3.11 17.87 4.52 18.46 5.03 17.23 6.19 17.71 5.69 18.94 7.42 19.65 8 18.26 9.18 18.74 8.38 20.65 1.71 17.91 2.48 16.05 3.66 16.54"/>
      <path class="cls-2" d="M9.44,18.25l-.29.52-5.82-4.38.32-.58,6.78,2.66-.3.54-1.39-.57-.51.9,1.21.9ZM7.23,16.61l.35-.62-2.66-1.09h0s2.32,1.71,2.32,1.71Z"/>
      <polygon class="cls-2" points="12.68 13.63 12.34 14.04 8.01 10.48 12.01 14.44 11.66 14.86 7.01 11.69 7.01 11.69 11.33 15.26 10.99 15.67 5.42 11.08 5.96 10.44 10.49 13.52 10.49 13.52 6.58 9.68 7.11 9.04 12.68 13.63"/>
      <path class="cls-2" d="M13.14,13.2l-.44.41-4.19-5.95.48-.45,5.63,4.61-.45.42-1.15-.97-.76.71.87,1.22ZM11.54,10.96l.52-.48-2.2-1.85h0s1.68,2.33,1.68,2.33Z"/>
      <path class="cls-2" d="M10.49,5.92l1.13-.81c.25-.18.6-.11,1.02.23.3.24.59.55.87.93.24.33.42.64.53.93.12.3.17.54.13.71.19.04.35.13.5.26.2.18.49.52.86,1.03.33.46.54.74.63.85.12.15.22.22.31.23l.11.15-.52.37c-.12-.14-.25-.29-.37-.44-.14-.18-.32-.42-.52-.7-.32-.44-.54-.72-.67-.82-.17-.14-.33-.15-.49-.03l-.48.35,1.65,2.29-.46.33-4.22-5.84ZM13.36,7.79c.12-.09.17-.21.13-.38-.03-.17-.16-.4-.37-.69-.15-.21-.29-.36-.42-.47-.18-.13-.33-.16-.45-.07l-.58.42,1.14,1.58.54-.39Z"/>
      <polygon class="cls-2" points="17.38 9.98 16.89 10.27 13.21 4.07 13.71 3.78 17.38 9.98"/>
      <polygon class="cls-2" points="18.87 9.22 18.35 9.47 15.76 4.13 15 4.5 14.44 3.35 16.48 2.36 17.04 3.51 16.28 3.88 18.87 9.22"/>
      <polygon class="cls-2" points="20.41 8.58 19.87 8.78 17.28 2.06 17.82 1.85 20.41 8.58"/>
      <polygon class="cls-2" points="23.27 7.72 22.76 7.86 21.27 2.47 22.26 8 21.73 8.14 19.75 2.88 19.74 2.89 21.23 8.28 20.72 8.42 18.8 1.48 19.61 1.25 21.54 6.37 21.54 6.37 20.56 .99 21.35 .78 23.27 7.72"/>
      <polygon class="cls-2" points="24.66 1.54 23.23 1.75 23.44 3.25 24.76 3.07 24.94 4.31 23.62 4.5 23.89 6.36 25.39 6.14 25.57 7.4 23.51 7.69 22.48 .56 24.48 .28 24.66 1.54"/>
      <path class="cls-2" d="M28.97,7.38h-.64s-.17-.64-.17-.64c-.11.24-.21.42-.31.54-.14.16-.3.24-.49.24-.25,0-.46-.22-.61-.65-.15-.39-.21-.87-.2-1.44,0-.41.04-.76.11-1.04.09-.38.24-.73.46-1.05l.06-.09c-.07-.21-.12-.43-.16-.65-.05-.3-.07-.6-.06-.9,0-.51.09-.93.23-1.24C27.31.15,27.49,0,27.71,0c.17,0,.32.14.44.41.14.32.21.76.2,1.32,0,.45-.08.85-.2,1.2-.07.19-.16.37-.27.55h0s.36,1.27.36,1.27c.04-.18.07-.34.09-.5.03-.21.05-.43.06-.67h.47c-.03.46-.07.86-.12,1.2-.05.3-.13.63-.23.97l.46,1.62ZM27.42,4.15c-.13.24-.22.41-.26.54-.05.17-.08.39-.09.66,0,.21.02.4.07.59.07.26.18.39.32.39.08,0,.16-.06.25-.17.07-.09.13-.21.19-.35l-.47-1.66ZM27.83,1.22c-.04-.1-.09-.16-.16-.16-.06,0-.12.05-.16.15-.05.12-.07.27-.07.48,0,.14.01.29.04.44.03.15.07.33.14.52.08-.15.14-.28.18-.41.05-.16.08-.34.09-.53,0-.21-.02-.38-.06-.49"/>
      <path class="cls-2" d="M31.27.86c.28-.37.55-.54.83-.49.27.05.48.29.61.74.21.69.18,1.75-.07,3.2-.25,1.43-.59,2.44-1.01,3.01-.28.38-.55.55-.82.5-.27-.05-.48-.3-.61-.75-.2-.69-.18-1.75.07-3.18.25-1.44.59-2.45,1.01-3.03M30.66,5.98c.06.35.18.53.36.56.17.03.35-.11.52-.41.23-.4.42-1.03.57-1.92.15-.89.19-1.56.11-2.01-.06-.35-.18-.53-.35-.56-.18-.03-.35.11-.53.41-.23.4-.42,1.05-.57,1.93-.15.88-.19,1.55-.11,2"/>
      <path class="cls-2" d="M34.83,3.66c.06-.34.1-.61.09-.79,0-.32-.1-.51-.28-.56-.16-.05-.34.07-.53.34-.26.37-.51.99-.76,1.86-.19.67-.3,1.23-.33,1.67-.03.51.06.79.26.85.14.04.29-.04.44-.24.16-.2.31-.5.46-.92l.51.15c-.28.77-.57,1.36-.87,1.75-.32.43-.63.6-.92.52-.34-.1-.51-.48-.53-1.16-.02-.71.13-1.64.47-2.8.33-1.15.7-2.01,1.1-2.6.38-.55.73-.78,1.06-.69.33.09.51.45.55,1.06.03.5-.04,1.07-.2,1.69l-.51-.15Z"/>
      <polygon class="cls-2" points="38.09 3.7 36.85 3.2 36.28 4.61 37.41 5.07 36.94 6.24 35.8 5.78 35.09 7.51 36.38 8.04 35.9 9.21 34.13 8.49 36.85 1.82 38.58 2.52 38.09 3.7"/>
      <path class="cls-2" d="M36.32,9.43l-.49-.26,4.24-5.9.54.29-2.63,6.77-.5-.27.56-1.39-.84-.45-.87,1.23ZM37.91,7.18l.58.31,1.07-2.66h0s-1.64,2.35-1.64,2.35Z"/>
      <polygon class="cls-2" points="43.39 5.32 43.8 5.6 39.67 11.51 39.24 11.21 41.33 6.42 41.33 6.41 38.39 10.62 37.99 10.34 42.11 4.43 42.57 4.75 40.51 9.44 40.52 9.44 43.39 5.32"/>
      <path class="cls-2" d="M43.76,11.77c-.64.67-1.18,1.1-1.63,1.3-.43.19-.76.18-1-.05-.11-.1-.16-.24-.17-.42-.02-.22.05-.48.19-.78.1-.21.24-.43.42-.66.17-.23.38-.47.63-.73l3.3-3.44.39.37-3.22,3.36c-.33.35-.55.64-.66.88-.1.22-.1.38,0,.48.13.12.3.12.53,0,.21-.1.47-.32.79-.65l3.26-3.41.39.37-3.23,3.37Z"/>
      <polygon class="cls-2" points="48.7 10.35 49.01 10.73 43.47 15.35 43.13 14.94 46.42 10.87 46.41 10.86 42.47 14.15 42.15 13.77 47.7 9.16 48.06 9.59 44.83 13.57 44.83 13.57 48.7 10.35"/>
      <polygon class="cls-2" points="43.96 16.06 43.65 15.63 49.55 11.48 49.86 11.91 43.96 16.06"/>
      <polygon class="cls-2" points="51.1 13.87 51.38 14.34 44.61 17.41 44.35 16.98 50.26 12.46 50.55 12.95 45.99 16.3 45.99 16.3 51.1 13.87"/>
      <polygon class="cls-2" points="51.37 17.23 50.8 16.02 49.41 16.67 49.93 17.78 48.79 18.31 48.27 17.21 46.57 18 47.16 19.27 46.01 19.81 45.2 18.08 51.73 15.01 52.52 16.69 51.37 17.23"/>
      <path class="cls-2" d="M52.88,17.54l.42,1.21c.09.27-.08.56-.53.86-.32.21-.7.39-1.15.55-.38.13-.73.22-1.04.25-.33.04-.56.02-.71-.06-.1.16-.23.29-.4.39-.23.14-.64.31-1.23.52-.53.18-.87.3-1,.36-.18.07-.28.15-.32.22l-.17.06-.19-.56c.17-.08.35-.15.54-.23.22-.08.49-.18.82-.3.52-.18.84-.31.98-.4.18-.12.24-.26.18-.43l-.18-.52-2.67.92-.17-.49,6.83-2.35ZM50.23,19.66c.05.13.15.2.32.21.17,0,.43-.04.76-.16.24-.08.43-.17.57-.27.18-.13.25-.26.21-.38l-.22-.63-1.85.64.2.58Z"/>
      <path class="cls-2" d="M49.04,21.97c-.28.06-.5.15-.67.25-.26.15-.36.33-.32.53.03.14.12.25.25.31.17.08.43.08.76,0,.25-.06.44-.14.55-.26.08-.08.15-.21.21-.38l.13-.31c.06-.15.11-.27.15-.34.07-.12.17-.23.28-.32.14-.11.32-.22.54-.31.25-.1.55-.19.92-.27.54-.12,1.01-.17,1.41-.14.56.05.89.24.97.6.08.33-.14.65-.65.94-.38.22-.85.4-1.41.53l-.11-.49c.27-.07.47-.15.62-.23.25-.15.35-.32.31-.51-.03-.11-.11-.2-.25-.25-.17-.06-.4-.06-.69,0-.23.05-.39.12-.5.2-.06.05-.12.12-.16.21h0s-.3.71-.3.71c-.09.23-.23.42-.44.57-.28.2-.72.37-1.3.5-.89.2-1.56.21-2.01.03-.28-.11-.44-.27-.49-.48-.09-.4.13-.75.66-1.06.37-.22.85-.39,1.44-.52l.11.49Z"/>
      <rect class="cls-2" x="47.24" y="23.74" width="7.22" height=".53" transform="translate(-2.91 7.52) rotate(-8.22)"/>
      <polygon class="cls-2" points="47.45 26.27 47.42 25.74 53.34 25.33 53.29 24.55 54.57 24.46 54.71 26.55 53.43 26.64 53.38 25.86 47.45 26.27"/>
      <polygon class="cls-2" points="47.46 28.37 47.48 27.85 50.2 27.93 54.73 27.19 54.71 27.81 51.53 28.25 54.67 28.85 54.65 29.44 50.16 28.46 47.46 28.37"/>
      <polygon class="cls-2" points="65.16 33.56 65.16 38.81 63.86 38.81 62.78 35.84 62.78 38.81 61.54 38.81 61.54 33.56 62.78 33.56 63.93 36.63 63.93 33.56 65.16 33.56"/>
      <path class="cls-2" d="M68.8,33.55l.98,5.26h-1.41l-.13-1h-.94l-.17,1h-1.39l.88-5.26h2.18ZM68.13,36.93c-.02-.2-.05-.45-.09-.74-.03-.18-.07-.49-.13-.93l-.12-.83c-.12.62-.21,1.14-.27,1.55-.06.38-.1.69-.13.94h.74Z"/>
      <polygon class="cls-2" points="73.43 33.55 73.43 34.56 72.52 34.56 72.52 38.81 71.02 38.81 71.02 34.56 70.1 34.56 70.1 33.55 73.43 33.55"/>
      <rect class="cls-2" x="74.02" y="33.55" width="1.48" height="5.26"/>
      <path class="cls-2" d="M80.07,36.63c0,.37-.02.66-.05.89-.04.29-.12.54-.23.72-.13.22-.32.38-.56.5-.26.12-.6.19-1.02.19s-.78-.06-1.04-.19c-.25-.11-.43-.27-.56-.49-.12-.19-.2-.43-.24-.73-.03-.22-.04-.52-.04-.89v-.9c0-.38.01-.67.04-.89.04-.29.12-.54.24-.72.13-.21.32-.38.56-.49.27-.12.62-.17,1.04-.17s.75.06,1.02.17c.24.11.43.28.56.49.11.19.19.43.23.72.04.22.05.52.05.89v.9ZM78.58,34.89c0-.25-.02-.42-.07-.49-.05-.08-.15-.11-.3-.11-.18,0-.3.06-.35.17-.04.08-.05.22-.05.43v2.47c0,.23.02.39.06.49.06.15.17.22.35.22s.29-.07.33-.2c.03-.08.04-.23.04-.44v-2.55Z"/>
      <polygon class="cls-2" points="84.44 33.56 84.44 38.81 83.14 38.81 82.06 35.84 82.06 38.81 80.83 38.81 80.83 33.56 82.06 33.56 83.21 36.63 83.21 33.56 84.44 33.56"/>
      <path class="cls-2" d="M88.08,33.55l.98,5.26h-1.41l-.13-1h-.94l-.17,1h-1.39l.88-5.26h2.18ZM87.41,36.93c-.02-.2-.05-.45-.09-.74-.03-.18-.07-.49-.13-.93l-.12-.83c-.12.62-.21,1.14-.27,1.55-.06.38-.1.69-.13.94h.74Z"/>
      <polygon class="cls-2" points="91.17 33.56 91.17 37.8 92.33 37.8 92.33 38.81 89.69 38.81 89.69 33.56 91.17 33.56"/>
    </g>
  </g>
</svg>